<svg width="120" height="20" viewBox="0 0 120 20" fill="none" xmlns="http://www.w3.org/2000/svg">
<g clip-path="url(#clip0_10014_2)">
<path fill-rule="evenodd" clip-rule="evenodd" d="M102.939 2.93934C103.525 2.35355 104.475 2.35355 105.061 2.93934L111.061 8.93934C111.646 9.52513 111.646 10.4749 111.061 11.0607L105.061 17.0607C104.475 17.6464 103.525 17.6464 102.939 17.0607C102.354 16.4749 102.354 15.5251 102.939 14.9393L106.379 11.5H94C93.1716 11.5 92.5 10.8284 92.5 10C92.5 9.17157 93.1716 8.5 94 8.5H106.379L102.939 5.06066C102.354 4.47487 102.354 3.52513 102.939 2.93934Z" fill="none"/>
<g style="mix-blend-mode:multiply">
<path d="M94 11.5C93.1716 11.5 92.5 10.8284 92.5 10C92.5 9.17157 93.1716 8.5 94 8.5H101.5V11.5H94Z" fill="url(#paint0_linear_10014_2)"/>
</g>
<g filter="url(#filter0_iiii_10014_2)">
<path d="M0 1H92C94.2091 1 96 2.79086 96 5V15C96 17.2091 94.2091 19 92 19H0V1Z" fill="#3E3F3F"/>
</g>
<path d="M92 1C94.2091 1 96 2.79086 96 5V15C96 17.2091 94.2091 19 92 19V1Z" fill="none"/>
</g>
<defs>
<filter id="filter0_iiii_10014_2" x="0" y="-4" width="99" height="28" filterUnits="userSpaceOnUse" color-interpolation-filters="sRGB">
<feFlood flood-opacity="0" result="BackgroundImageFix"/>
<feBlend mode="normal" in="SourceGraphic" in2="BackgroundImageFix" result="shape"/>
<feColorMatrix in="SourceAlpha" type="matrix" values="0 0 0 0 0 0 0 0 0 0 0 0 0 0 0 0 0 0 127 0" result="hardAlpha"/>
<feOffset dx="1" dy="5"/>
<feGaussianBlur stdDeviation="3"/>
<feComposite in2="hardAlpha" operator="arithmetic" k2="-1" k3="1"/>
<feColorMatrix type="matrix" values="0 0 0 0 0.137255 0 0 0 0 0.145098 0 0 0 0 0.14902 0 0 0 1 0"/>
<feBlend mode="normal" in2="shape" result="effect1_innerShadow_10014_2"/>
<feColorMatrix in="SourceAlpha" type="matrix" values="0 0 0 0 0 0 0 0 0 0 0 0 0 0 0 0 0 0 127 0" result="hardAlpha"/>
<feOffset dx="3" dy="-5"/>
<feGaussianBlur stdDeviation="3"/>
<feComposite in2="hardAlpha" operator="arithmetic" k2="-1" k3="1"/>
<feColorMatrix type="matrix" values="0 0 0 0 0.137255 0 0 0 0 0.145098 0 0 0 0 0.14902 0 0 0 1 0"/>
<feBlend mode="normal" in2="effect1_innerShadow_10014_2" result="effect2_innerShadow_10014_2"/>
<feColorMatrix in="SourceAlpha" type="matrix" values="0 0 0 0 0 0 0 0 0 0 0 0 0 0 0 0 0 0 127 0" result="hardAlpha"/>
<feOffset dx="1" dy="-1"/>
<feGaussianBlur stdDeviation="0.5"/>
<feComposite in2="hardAlpha" operator="arithmetic" k2="-1" k3="1"/>
<feColorMatrix type="matrix" values="0 0 0 0 0.242217 0 0 0 0 0.247242 0 0 0 0 0.247101 0 0 0 1 0"/>
<feBlend mode="normal" in2="effect2_innerShadow_10014_2" result="effect3_innerShadow_10014_2"/>
<feColorMatrix in="SourceAlpha" type="matrix" values="0 0 0 0 0 0 0 0 0 0 0 0 0 0 0 0 0 0 127 0" result="hardAlpha"/>
<feOffset dx="1" dy="1"/>
<feGaussianBlur stdDeviation="0.5"/>
<feComposite in2="hardAlpha" operator="arithmetic" k2="-1" k3="1"/>
<feColorMatrix type="matrix" values="0 0 0 0 0.242217 0 0 0 0 0.247242 0 0 0 0 0.247101 0 0 0 1 0"/>
<feBlend mode="normal" in2="effect3_innerShadow_10014_2" result="effect4_innerShadow_10014_2"/>
</filter>
<linearGradient id="paint0_linear_10014_2" x1="93.5" y1="10" x2="101.5" y2="10" gradientUnits="userSpaceOnUse">
<stop/>
<stop offset="0.525" stop-opacity="0"/>
</linearGradient>
<clipPath id="clip0_10014_2">
<rect width="20" height="120" fill="none" transform="matrix(0 1 -1 0 120 0)"/>
</clipPath>
</defs>
</svg>
